<svg width="345" height="413" viewBox="0 0 345 413" fill="none" xmlns="http://www.w3.org/2000/svg">
<path d="M172.266 9.09304e-08C172.701 0.0135544 286.821 41.2119 336.627 61.6924C340.338 63.2186 342.877 65.9701 343.198 70.2148C344.782 91.15 344.525 159.948 344.504 203.536C344.502 206.841 344.491 210.098 344.363 213.4C343.417 237.815 333.056 346.704 193.12 408.516C179.885 414.361 164.642 414.36 151.408 408.514C10.891 346.444 1.03065 236.903 0.157838 213.099C0.0446759 210.012 0.0293933 206.954 0.0279553 203.865C0.00777331 160.483 -0.251121 91.7984 1.31409 70.4893C1.63798 66.0799 4.37362 63.1422 8.4635 61.4629C58.5389 40.9027 171.879 -0.00222691 172.266 9.09304e-08ZM171.099 140.5C112.043 140.5 76.4712 164.725 29.903 198.5C76.4712 232.275 112.043 256.5 171.099 256.5C230.155 256.5 265.727 232.275 312.296 198.5C265.727 164.725 230.155 140.5 171.099 140.5Z" fill="url(#paint0_linear_5_15)"/>
<path d="M138 167V236H207V167H138ZM198.565 213.878H186.244V221.045H181.583V228.213H163.403V221.088H158.742V213.864H146.435V174.717H153.011V184.081H158.432V174.717H164.178V184.081H169.599V174.717H175.344V184.081H180.766V174.717H186.511V184.081H191.933V174.717H198.509V213.878H198.565Z" fill="black"/>
<defs>
<linearGradient id="paint0_linear_5_15" x1="172.266" y1="-0.000411468" x2="172.266" y2="416.475" gradientUnits="userSpaceOnUse">
<stop stop-color="#338EFF"/>
<stop offset="1" stop-color="#1F5599"/>
</linearGradient>
</defs>
</svg>
