<svg width="345" height="417" viewBox="0 0 345 417" fill="none" xmlns="http://www.w3.org/2000/svg">
<path d="M8.46366 61.4629C58.539 40.9027 171.878 -0.00247467 172.266 -0.000247671C172.67 0.00207519 286.813 41.2095 336.626 61.6928C340.338 63.219 342.876 65.9701 343.198 70.215C344.782 91.1502 344.525 159.948 344.504 203.536C344.502 206.841 344.491 210.098 344.363 213.4C343.417 237.815 333.056 346.705 193.12 408.516C179.885 414.362 164.643 414.36 151.408 408.514C10.8909 346.444 1.03038 236.903 0.157567 213.099C0.0443987 210.012 0.0298526 206.953 0.0284158 203.865C0.00823365 160.482 -0.25111 91.7973 1.31414 70.4888C1.63804 66.0794 4.3737 63.1421 8.46366 61.4629Z" fill="url(#paint0_linear_5_15)"/>
<path d="M171.099 140.5C112.043 140.5 76.471 164.725 29.9026 198.5C76.471 232.275 112.043 256.5 171.099 256.5C230.155 256.5 265.727 232.275 312.296 198.5C265.727 164.725 230.155 140.5 171.099 140.5Z" fill="white"/>
<path d="M138 167V236H207V167H138ZM198.565 213.878H186.244V221.045H181.583V228.213H163.403V221.088H158.742V213.864H146.435V174.717H153.011V184.081H158.432V174.717H164.178V184.081H169.599V174.717H175.344V184.081H180.766V174.717H186.511V184.081H191.933V174.717H198.509V213.878H198.565Z" fill="black"/>
<defs>
<linearGradient id="paint0_linear_5_15" x1="172.266" y1="-0.000411987" x2="172.266" y2="417" gradientUnits="userSpaceOnUse">
<stop stop-color="#338EFF"/>
<stop offset="1" stop-color="#1F5599"/>
</linearGradient>
</defs>
</svg>
